<?xml version="1.0" encoding="utf-8"?>
<!-- Generator: Adobe Illustrator 27.5.0, SVG Export Plug-In . SVG Version: 6.00 Build 0)  -->
<svg version="1.1" xmlns="http://www.w3.org/2000/svg" xmlns:xlink="http://www.w3.org/1999/xlink" x="0px" y="0px"
	 viewBox="0 0 3710 3710" style="enable-background:new 0 0 3710 3710;" xml:space="preserve">
<g id="Background">
	<g>
		<g>
			<rect style="fill:#FFFFFF;" width="3710" height="3710"/>
		</g>
	</g>
</g>
<g id="Illustration">
	<g>
		<linearGradient id="SVGID_1_" gradientUnits="userSpaceOnUse" x1="3489.2996" y1="3266.6118" x2="1430.415" y2="1465.0892">
			<stop  offset="0" style="stop-color:#DAE3FE"/>
			<stop  offset="1" style="stop-color:#E9EFFD"/>
		</linearGradient>
		<path style="fill:url(#SVGID_1_);" d="M3139.396,2331.001c-266.091,626.537-974.895,977.527-1589.572,882.849
			c-100.02-15.406-374.229-61.298-617.002-277.802C465.467,2519.261,365.52,1693.971,742.521,1112.369
			c274.391-423.304,766.265-663.261,1233.641-651.258c100.673,2.585,486.494,18.519,825.563,298.109
			c49.802,41.066,159.647,138.651,258.644,293.462C3292.83,1416.208,3312.811,1922.679,3139.396,2331.001z"/>
		<g>
			<g>
				<g>
					<path style="fill:#91B3FA;" d="M1483.183,1374.29c-1.84-0.137-3.583-1.158-4.562-2.886c-3.708-6.545-7.619-13.072-11.62-19.403
						c-1.69-2.672-0.894-6.206,1.781-7.896c2.671-1.684,6.208-0.888,7.899,1.778c4.099,6.485,8.105,13.17,11.905,19.873
						c1.558,2.752,0.591,6.245-2.158,7.806C1485.403,1374.142,1484.276,1374.372,1483.183,1374.29z"/>
					<path style="fill:#91B3FA;" d="M1028.297,2092.757c-8.658-0.54-17.543-1.539-26.187-2.65c-3.138-0.408-5.351-3.276-4.946-6.413
						c0.405-3.138,3.292-5.272,6.41-4.949c8.438,1.095,17.189,1.939,25.572,2.593c6.214,0.464,12.572,0.804,18.908,1.019
						c3.236-0.122,5.636,2.753,5.53,5.913c-0.104,3.16-2.754,5.637-5.913,5.53
						C1041.178,2093.584,1034.662,2093.232,1028.297,2092.757z M1120.72,2090.629c-2.676-0.2-4.922-2.268-5.253-5.029
						c-0.374-3.14,1.865-5.989,5.005-6.365c14.265-1.705,28.67-4.095,42.813-7.093l1.23-0.261c3.085-0.656,6.131,1.321,6.788,4.409
						c0.658,3.093-1.319,6.136-4.412,6.791l-1.231,0.261c-14.479,3.073-29.224,5.516-43.828,7.263
						C1121.455,2090.65,1121.082,2090.656,1120.72,2090.629z M1235.614,2062.432c-2.146-0.16-4.113-1.529-4.928-3.676
						c-1.122-2.954,0.364-6.263,3.318-7.383c13.896-5.282,27.664-11.268,40.926-17.791c2.834-1.386,6.271-0.227,7.662,2.613
						c1.398,2.835,0.227,6.269-2.61,7.666c-13.582,6.679-27.683,12.808-41.91,18.21
						C1237.261,2062.381,1236.425,2062.492,1235.614,2062.432z M1340.147,2007.126c-1.653-0.123-3.242-0.96-4.268-2.427
						c-1.814-2.592-1.183-6.16,1.408-7.974c12.13-8.492,24.006-17.663,35.301-27.271c2.406-2.046,6.017-1.749,8.069,0.653
						c2.049,2.412,1.757,6.023-0.653,8.075c-11.563,9.834-23.727,19.226-36.151,27.925
						C1342.73,2006.892,1341.419,2007.221,1340.147,2007.126z M1427.955,1927.904c-1.185-0.089-2.35-0.545-3.317-1.38
						c-2.391-2.074-2.648-5.687-0.577-8.077c9.694-11.191,18.984-22.983,27.614-35.055c1.834-2.571,5.409-3.173,7.987-1.326
						c2.571,1.84,3.167,5.417,1.327,7.987c-8.833,12.359-18.347,24.432-28.277,35.891
						C1431.48,1927.365,1429.7,1928.034,1427.955,1927.904z M1493.921,1829.698c-0.731-0.055-1.464-0.249-2.158-0.604
						c-2.823-1.427-3.948-4.876-2.521-7.695c6.709-13.23,12.864-26.927,18.297-40.707c1.162-2.947,4.493-4.375,7.426-3.225
						c2.944,1.161,4.386,4.488,3.227,7.428c-5.564,14.106-11.867,28.134-18.735,41.683
						C1498.379,1828.703,1496.157,1829.865,1493.921,1829.698z M1534.084,1718.427c-0.281-0.021-0.564-0.064-0.848-0.125
						c-3.082-0.701-5.018-3.766-4.319-6.849c3.282-14.484,5.908-29.275,7.808-43.951c0.405-3.137,3.288-5.445,6.413-4.943
						c3.135,0.402,5.348,3.276,4.943,6.407c-1.946,15.038-4.636,30.182-7.994,45.014
						C1539.452,1716.781,1536.864,1718.634,1534.084,1718.427z M1545.771,1600.662c-2.899-0.217-5.217-2.599-5.292-5.565
						c-0.369-14.812-1.448-29.79-3.208-44.521c-0.374-3.14,1.866-5.989,5.006-6.365c3.152-0.382,5.991,1.871,6.365,5.005
						c1.801,15.088,2.907,30.426,3.286,45.593c0.078,3.162-2.42,5.79-5.582,5.868
						C1546.151,1600.679,1545.961,1600.676,1545.771,1600.662z M1528.393,1483.615c-2.345-0.175-4.431-1.788-5.093-4.187
						c-3.958-14.34-8.623-28.61-13.861-42.423c-1.12-2.954,0.366-6.258,3.323-7.383c2.948-1.109,6.264,0.361,7.385,3.327
						c5.362,14.136,10.135,28.75,14.189,43.434c0.841,3.045-0.948,6.198-3.996,7.041
						C1529.688,1483.605,1529.031,1483.662,1528.393,1483.615z"/>
					<path style="fill:#91B3FA;" d="M930.343,2075.139c-0.391-0.029-0.783-0.098-1.176-0.211
						c-7.359-2.136-14.787-4.479-22.078-6.969c-2.993-1.019-4.592-4.273-3.57-7.269c1.02-2.997,4.279-4.625,7.267-3.567
						c7.124,2.432,14.382,4.723,21.573,6.808c3.035,0.882,4.783,4.057,3.903,7.092
						C935.496,2073.668,932.986,2075.337,930.343,2075.139z"/>
				</g>
				<g>
					<path style="fill:#91B3FA;" d="M636.32,1834.267c-1.915-0.143-3.712-1.241-4.662-3.073
						c-3.512-6.771-6.933-13.772-10.173-20.814c-1.322-2.874-0.062-6.273,2.809-7.595c2.883-1.321,6.273-0.059,7.595,2.81
						c3.161,6.88,6.503,13.717,9.934,20.325c1.456,2.806,0.36,6.262-2.445,7.717C638.401,1834.147,637.343,1834.343,636.32,1834.267
						z"/>
					<path style="fill:#91B3FA;" d="M601.148,1746.033c-2.319-0.173-4.393-1.758-5.074-4.124
						c-3.241-11.254-6.124-22.783-8.561-34.257c-0.669-3.162-1.306-6.315-1.915-9.467c-0.598-3.106,1.437-6.105,4.54-6.703
						c3.123-0.608,6.108,1.437,6.706,4.537c0.591,3.083,1.216,6.168,1.869,9.256c2.381,11.206,5.197,22.467,8.362,33.462
						c0.875,3.037-0.879,6.214-3.915,7.086C602.486,1746.021,601.809,1746.082,601.148,1746.033z M582.474,1631.126
						c-2.86-0.214-5.167-2.545-5.285-5.474c-0.607-14.926-0.52-30.057,0.26-44.975c0.163-3.155,2.856-5.584,6.014-5.421
						c3.041,0.199,5.587,2.856,5.419,6.016c-0.76,14.571-0.845,29.344-0.253,43.91c0.128,3.16-2.327,5.825-5.488,5.954
						C582.916,1631.148,582.695,1631.142,582.474,1631.126z M591.947,1515.079c-0.245-0.018-0.492-0.054-0.738-0.1
						c-3.098-0.641-5.089-3.671-4.451-6.769c3.015-14.627,6.753-29.29,11.11-43.57c0.921-3.026,4.14-4.72,7.147-3.806
						c3.023,0.921,4.73,4.121,3.806,7.147c-4.254,13.946-7.904,28.256-10.849,42.547
						C597.384,1513.377,594.774,1515.291,591.947,1515.079z M629.078,1404.753c-0.692-0.052-1.382-0.227-2.042-0.545
						c-2.853-1.362-4.062-4.777-2.7-7.63c6.439-13.48,13.579-26.812,21.223-39.636c1.616-2.717,5.126-3.621,7.849-1.988
						c2.716,1.616,3.606,5.13,1.985,7.846c-7.464,12.524-14.435,25.549-20.721,38.71
						C633.622,1403.702,631.361,1404.924,629.078,1404.753z M691.497,1306.507c-1.132-0.085-2.25-0.505-3.196-1.281
						c-2.446-2.005-2.805-5.609-0.8-8.055c9.451-11.539,19.563-22.783,30.055-33.426c2.217-2.245,5.841-2.277,8.095-0.057
						c2.254,2.22,2.277,5.844,0.057,8.1c-10.242,10.393-20.12,21.374-29.351,32.638
						C695.128,1305.926,693.295,1306.641,691.497,1306.507z M775.576,1226.043c-1.595-0.119-3.128-0.901-4.161-2.278
						c-1.894-2.536-1.376-6.125,1.156-8.016c11.936-8.932,24.45-17.417,37.194-25.223c2.699-1.649,6.221-0.803,7.873,1.894
						c1.652,2.691,0.806,6.217-1.891,7.871c-12.444,7.622-24.662,15.91-36.319,24.627
						C778.276,1225.779,776.906,1226.142,775.576,1226.043z M876.537,1168.189c-2.077-0.155-3.994-1.437-4.855-3.491
						c-1.227-2.912,0.14-6.269,3.055-7.498c13.757-5.791,27.952-11.005,42.193-15.509c3.024-0.958,6.231,0.723,7.183,3.737
						c0.955,3.015-0.717,6.231-3.732,7.184c-13.907,4.395-27.769,9.488-41.202,15.146
						C878.314,1168.119,877.413,1168.254,876.537,1168.189z M988.459,1136.259c-2.584-0.193-4.794-2.135-5.222-4.808
						c-0.499-3.121,1.629-6.057,4.753-6.553c14.751-2.358,29.786-4.056,44.681-5.052c3.129-0.192,5.882,2.177,6.095,5.333
						c0.21,3.156-2.177,5.881-5.333,6.095c-14.546,0.972-29.231,2.628-43.64,4.928
						C989.343,1136.275,988.897,1136.292,988.459,1136.259z M1148.855,1137.72c-0.195-0.015-0.393-0.04-0.589-0.072
						c-14.376-2.581-29.022-4.51-43.531-5.733c-3.15-0.268-5.49-3.034-5.223-6.187c0.264-3.132,3.003-5.461,6.131-5.228
						c0.017,0.001,0.036,0.003,0.055,0.004c14.862,1.255,29.864,3.233,44.586,5.868c3.112,0.563,5.183,3.538,4.625,6.647
						C1154.388,1135.935,1151.746,1137.936,1148.855,1137.72z"/>
					<path style="fill:#91B3FA;" d="M1240.464,1163.734c-0.563-0.042-1.128-0.169-1.682-0.383
						c-6.954-2.751-14.095-5.375-21.219-7.802c-2.994-1.019-4.593-4.273-3.573-7.264c1.017-2.991,4.278-4.626,7.264-3.573
						c7.297,2.485,14.612,5.172,21.739,7.986c2.941,1.162,4.383,4.487,3.222,7.428
						C1245.267,1162.517,1242.898,1163.915,1240.464,1163.734z"/>
				</g>
				<g>
					<path style="fill:#91B3FA;" d="M1242.313,1281.823c-2.024-1.41-4.721-1.38-6.714,0.075l-56.848,41.501
						c-30.548-12.134-63.251-19.484-97.03-21.269l-34.296-61.411c-1.203-2.155-3.64-3.307-6.069-2.873l-83.101,14.885
						c-2.429,0.436-4.314,2.364-4.695,4.799l-10.845,69.498c-31.058,13.402-59.176,31.644-83.613,53.628l-67.719-19.186
						c-2.374-0.672-4.912,0.235-6.322,2.259l-48.236,69.288c-1.411,2.027-1.38,4.722,0.075,6.714l41.5,56.847
						c-12.133,30.548-19.481,63.251-21.268,97.03l-61.412,34.296c-2.154,1.203-3.308,3.639-2.873,6.068l14.886,83.103
						c0.435,2.428,2.363,4.313,4.801,4.694l69.498,10.845c13.402,31.059,31.644,59.176,53.628,83.613l-19.187,67.719
						c-0.672,2.373,0.236,4.912,2.26,6.321l69.287,48.236c2.025,1.411,4.722,1.38,6.715-0.075l56.847-41.5
						c30.548,12.134,63.251,19.483,97.03,21.27l34.296,61.412c1.202,2.153,3.639,3.307,6.067,2.872l83.104-14.886
						c2.428-0.435,4.313-2.364,4.693-4.801l10.845-69.498c31.059-13.4,59.178-31.645,83.614-53.629l67.718,19.187
						c2.373,0.674,4.913-0.235,6.323-2.26l48.236-69.288c1.408-2.025,1.38-4.721-0.075-6.714l-41.499-56.847
						c12.134-30.548,19.482-63.251,21.268-97.03l61.412-34.296c2.152-1.202,3.307-3.639,2.872-6.067l-14.886-83.102
						c-0.435-2.429-2.363-4.314-4.799-4.695l-69.498-10.845c-13.402-31.058-31.647-59.175-53.628-83.612l19.185-67.719
						c0.673-2.374-0.234-4.912-2.26-6.323L1242.313,1281.823z"/>
					<g>
						<path style="fill:#BDD0FB;" d="M1059.058,1693.53c-7.904-0.59-15.77-2.321-23.393-5.194
							c-20.879-7.883-37.44-23.422-46.63-43.759c-9.193-20.338-9.918-43.037-2.038-63.917c7.88-20.879,23.418-37.437,43.756-46.633
							c20.335-9.191,43.036-9.907,63.917-2.035c20.88,7.883,37.443,23.422,46.633,43.759c9.194,20.338,9.916,43.037,2.036,63.917
							c-7.88,20.88-23.419,37.437-43.757,46.633C1086.671,1692.137,1072.804,1694.556,1059.058,1693.53z M1070.021,1543.932
							c-10.92-0.815-21.935,1.11-32.194,5.749c-33.349,15.071-48.216,54.469-33.142,87.821
							c7.302,16.154,20.459,28.501,37.047,34.763c16.591,6.262,34.623,5.691,50.777-1.62c16.156-7.3,28.501-20.456,34.763-37.044
							c6.259-16.588,5.685-34.623-1.617-50.777c-7.306-16.154-20.462-28.501-37.05-34.763
							C1082.548,1545.776,1076.299,1544.401,1070.021,1543.932z"/>
					</g>
					<path style="fill:#BDD0FB;" d="M1048.092,1823.488c-37.407-2.792-73.53-15.536-105.124-37.535
						c-46.539-32.399-77.676-80.984-87.675-136.799c-3.213-17.934-4.119-35.927-2.797-53.629
						c2.795-37.401,15.543-73.515,37.533-105.104c32.399-46.539,80.984-77.679,136.805-87.681c1.457-0.256,2.917-0.506,4.378-0.733
						c12.005-1.896,24.144-2.767,36.195-2.602c1.504,0.017,3.007,0.056,4.505,0.107l-0.603,17.167
						c-13.779-0.485-27.724,0.515-41.448,2.972l0,0c-48.573,8.698-91.185,34.817-120.855,73.873
						c-1.669,2.197-3.297,4.436-4.88,6.711c-20.212,29.031-31.927,62.223-34.496,96.596c-1.218,16.275-0.383,32.81,2.569,49.289
						c9.189,51.303,37.808,95.961,80.584,125.735c42.773,29.785,94.588,41.121,145.891,31.927
						c89.411-16.016,153.747-90.923,160.202-177.592c1.194-15.991,0.413-32.381-2.541-48.878
						c-6.237-34.818-21.759-67.234-44.883-93.748l12.942-11.29c25.173,28.853,42.062,64.129,48.848,102.004
						c3.215,17.952,4.062,35.782,2.766,53.184c-7.026,94.301-77.026,175.8-174.307,193.23
						C1083.776,1823.903,1065.789,1824.808,1048.092,1823.488z"/>
				</g>
			</g>
			<g>
				<g>
					<path style="fill:#91B3FA;" d="M2105.563,1152.17c-2.569-0.192-4.982-1.679-6.235-4.147
						c-4.496-8.833-9.45-17.542-14.726-25.889c-2.251-3.557-1.19-8.265,2.372-10.515c3.557-2.243,8.268-1.183,10.519,2.368
						c5.526,8.738,10.718,17.87,15.426,27.121c1.911,3.757,0.415,8.341-3.339,10.256
						C2108.292,1152.015,2106.907,1152.271,2105.563,1152.17z"/>
					<path style="fill:#91B3FA;" d="M1834.879,1630.651c-3.709-0.277-6.754-3.237-7.026-7.058c-0.302-4.203,2.86-7.851,7.06-8.149
						c14.758-1.057,29.655-3.163,44.283-6.275c5.163-1.093,10.264-2.31,15.309-3.628c4.075-1.077,8.242,1.362,9.312,5.436
						c1.07,4.075-1.365,8.239-5.44,9.308c-5.274,1.391-10.61,2.65-16.012,3.801c-15.311,3.255-30.91,5.465-46.362,6.567
						C1835.623,1630.684,1835.246,1630.678,1834.879,1630.651z M1987.773,1580.613c-2.327-0.174-4.547-1.407-5.885-3.531
						c-2.25-3.565-1.185-8.272,2.376-10.522c16.985-10.724,33.058-23.135,47.767-36.889c3.074-2.877,7.894-2.718,10.777,0.364
						c2.877,3.074,2.714,7.901-0.364,10.777c-15.407,14.403-32.241,27.4-50.041,38.645
						C1990.968,1580.366,1989.344,1580.73,1987.773,1580.613z M2098.658,1464.122c-1.087-0.081-2.173-0.394-3.187-0.97
						c-3.664-2.073-4.952-6.724-2.876-10.392c9.926-17.53,18.242-36.069,24.718-55.103c1.361-3.983,5.67-6.14,9.677-4.758
						c3.987,1.357,6.117,5.683,4.762,9.674c-6.786,19.93-15.496,39.343-25.89,57.704
						C2104.363,1462.927,2101.51,1464.335,2098.658,1464.122z M2141.379,1309.039c-4.013-0.3-7.135-3.691-7.048-7.761
						c0.423-20.062-1.063-40.325-4.412-60.228c-0.697-4.159,2.104-8.086,6.256-8.785c4.143-0.736,8.087,2.097,8.785,6.249
						c3.506,20.848,5.057,42.072,4.617,63.08c-0.087,4.212-3.573,7.551-7.781,7.468
						C2141.654,1309.06,2141.517,1309.049,2141.379,1309.039z"/>
					<path style="fill:#91B3FA;" d="M1734.676,1622.35c-0.405-0.03-0.818-0.091-1.229-0.189
						c-10.089-2.433-20.163-5.365-29.944-8.716c-3.986-1.366-6.108-5.698-4.746-9.688c1.364-3.976,5.696-6.094,9.684-4.743
						c9.337,3.199,18.951,5.999,28.585,8.316c4.092,0.992,6.612,5.108,5.623,9.2
						C1741.76,1620.213,1738.336,1622.623,1734.676,1622.35z"/>
				</g>
				<g>
					<path style="fill:#91B3FA;" d="M1519.199,1453.772c-2.55-0.19-4.943-1.654-6.209-4.092c-4.755-9.174-9.15-18.708-13.056-28.348
						c-1.583-3.897,0.298-8.348,4.199-9.931c3.9-1.583,8.347,0.302,9.93,4.206c3.73,9.194,7.926,18.295,12.466,27.049
						c1.939,3.736,0.479,8.339-3.257,10.278C1521.971,1453.613,1520.562,1453.874,1519.199,1453.772z"/>
					<path style="fill:#91B3FA;" d="M1483.35,1330.217c-3.66-0.273-6.689-3.165-7.019-6.938
						c-1.581-18.023-1.703-36.303-0.357-54.332c0.197-2.636,0.423-5.27,0.686-7.894c0.417-4.187,4.255-6.992,8.34-6.837
						c4.191,0.418,7.249,4.155,6.833,8.343c-0.247,2.505-0.464,5.005-0.652,7.522c-1.285,17.212-1.168,34.663,0.34,51.867
						c0.37,4.194-2.732,7.89-6.93,8.263C1484.172,1330.249,1483.754,1330.247,1483.35,1330.217z M1507.961,1173.917
						c-0.806-0.06-1.613-0.247-2.398-0.583c-3.881-1.633-5.697-6.107-4.06-9.987c8.051-19.073,17.921-37.511,29.33-54.819
						c2.319-3.508,7.043-4.477,10.563-2.161c3.516,2.316,4.487,7.048,2.168,10.563c-10.899,16.517-20.323,34.137-28.01,52.349
						C1514.248,1172.37,1511.136,1174.154,1507.961,1173.917z M1602.51,1047.066c-2-0.149-3.943-1.086-5.319-2.757
						c-2.677-3.254-2.21-8.057,1.044-10.733c15.99-13.158,33.309-24.902,51.475-34.903c3.687-2.025,8.324-0.678,10.356,3.006
						c2.028,3.691,0.685,8.324-3.006,10.356c-17.341,9.547-33.872,20.753-49.138,33.314
						C1606.345,1046.651,1604.4,1047.208,1602.51,1047.066z M1745.29,978.973c-3.311-0.247-6.193-2.65-6.898-6.063
						c-0.85-4.125,1.807-8.16,5.933-9.01c20.376-4.199,41.166-6.529,61.793-6.931c4.301-0.254,7.69,3.255,7.776,7.472
						c0.081,4.21-3.262,7.686-7.472,7.768c-19.7,0.388-39.556,2.617-59.023,6.629
						C1746.689,978.988,1745.981,979.025,1745.29,978.973z"/>
					<path style="fill:#91B3FA;" d="M1932.493,995.061c-0.75-0.056-1.502-0.224-2.239-0.51c-9.2-3.637-18.676-6.882-28.166-9.637
						c-4.041-1.175-6.368-5.411-5.193-9.452c1.175-4.042,5.396-6.378,9.452-5.193c9.939,2.892,19.871,6.284,29.513,10.095
						c3.916,1.547,5.837,5.976,4.286,9.892C1938.89,993.44,1935.731,995.303,1932.493,995.061z"/>
				</g>
				<g>
					<path style="fill:#91B3FA;" d="M1934.03,1072.146c-1.385-0.964-3.229-0.944-4.593,0.05l-38.889,28.391
						c-20.897-8.301-43.27-13.328-66.378-14.55l-23.462-42.011c-0.823-1.474-2.49-2.262-4.152-1.965l-56.849,10.183
						c-1.662,0.299-2.951,1.619-3.211,3.284l-7.419,47.543c-21.247,9.169-40.483,21.648-57.2,36.687l-46.326-13.125
						c-1.624-0.459-3.36,0.161-4.324,1.546l-32.998,47.4c-0.964,1.386-0.944,3.23,0.052,4.593l28.39,38.888
						c-8.301,20.898-13.327,43.271-14.549,66.379l-42.012,23.462c-1.474,0.823-2.262,2.49-1.965,4.151l10.184,56.851
						c0.296,1.661,1.616,2.95,3.284,3.211l47.542,7.419c9.169,21.247,21.648,40.482,36.687,57.2l-13.126,46.326
						c-0.459,1.623,0.162,3.361,1.546,4.324l47.4,32.998c1.386,0.965,3.23,0.944,4.594-0.052l38.888-28.39
						c20.897,8.301,43.27,13.327,66.378,14.55l23.462,42.012c0.823,1.472,2.49,2.262,4.151,1.964l56.851-10.183
						c1.661-0.297,2.95-1.618,3.209-3.284l7.42-47.543c21.247-9.167,40.483-21.648,57.2-36.688l46.325,13.126
						c1.624,0.461,3.362-0.161,4.326-1.547l32.998-47.4c0.964-1.385,0.944-3.229-0.052-4.593l-28.39-38.888
						c8.3-20.898,13.327-43.27,14.549-66.379l42.012-23.462c1.472-0.822,2.262-2.49,1.964-4.15l-10.184-56.849
						c-0.297-1.662-1.616-2.951-3.283-3.213l-47.543-7.419c-9.169-21.247-21.649-40.482-36.687-57.2l13.125-46.326
						c0.461-1.623-0.161-3.36-1.546-4.325L1934.03,1072.146z"/>
					<g>
						<path style="fill:#BDD0FB;" d="M1808.285,1359.304c-22.176-1.655-42.806-15.06-52.589-36.705
							c-14.246-31.513-0.196-68.738,31.314-82.992l0.004,0c31.512-14.239,68.745-0.184,82.984,31.32
							c14.246,31.513,0.196,68.739-31.314,82.992C1828.816,1358.373,1818.391,1360.058,1808.285,1359.304z M1796.437,1260.456
							c-20.022,9.048-28.948,32.701-19.9,52.723c9.053,20.015,32.698,28.948,52.724,19.892
							c20.018-9.049,28.944-32.702,19.896-52.724C1840.107,1260.341,1816.459,1251.401,1796.437,1260.456L1796.437,1260.456z"/>
					</g>
					<path style="fill:#BDD0FB;" d="M1800.742,1448.245c-26.572-1.976-52.227-11.037-74.671-26.66
						c-33.058-23.016-55.175-57.521-62.276-97.169c-2.283-12.737-2.927-25.516-1.988-38.094
						c1.987-26.561,11.04-52.212,26.662-74.648c23.013-33.063,57.525-55.179,97.173-62.284c10.588-1.897,21.36-2.669,32.017-2.292
						l-0.811,22.863c-9.032-0.323-18.176,0.331-27.17,1.944c-32.172,5.767-60.352,23.181-79.828,49.22
						c-0.291,0.389-0.58,0.778-0.868,1.175c-0.591,0.807-1.17,1.615-1.743,2.439c-13.249,19.036-20.932,40.796-22.615,63.332
						c-0.8,10.662-0.25,21.508,1.684,32.307c6.027,33.64,24.789,62.914,52.833,82.435c28.047,19.536,62.013,26.984,95.643,20.931
						c33.635-6.023,62.909-24.783,82.433-52.826c13.249-19.036,20.932-40.796,22.615-63.332c0.799-10.662,0.25-21.508-1.684-32.307
						c-4.094-22.833-14.263-44.087-29.419-61.46l17.235-15.035c17.88,20.494,29.875,45.544,34.699,72.456
						c2.282,12.736,2.926,25.516,1.987,38.094c-1.986,26.56-11.04,52.212-26.662,74.648c-23.013,33.062-57.524,55.178-97.173,62.284
						C1826.088,1448.539,1813.309,1449.183,1800.742,1448.245z"/>
				</g>
			</g>
		</g>
		<g>
			<g>
				
					<linearGradient id="SVGID_00000026871333727887254980000018031758572981447058_" gradientUnits="userSpaceOnUse" x1="2410.6401" y1="2313.8884" x2="2033.9788" y2="1724.3323" gradientTransform="matrix(0.9618 0.2737 -0.2737 0.9618 77.7897 799.5362)">
					<stop  offset="0" style="stop-color:#4F52FF"/>
					<stop  offset="1" style="stop-color:#4042E2"/>
				</linearGradient>
				<path style="fill:url(#SVGID_00000026871333727887254980000018031758572981447058_);" d="M1605.936,2682.601
					c-198.216-43.711-48.891-337.757-41.856-349.141l-355.221,124.735c0,0-31.723,170.948,189.326,328.263
					c55.927,39.799,112.51,56.958,165.859,60.46C1560.399,2778.301,1580.722,2723.443,1605.936,2682.601z"/>
				
					<linearGradient id="SVGID_00000082347595637469382530000013524743150250134956_" gradientUnits="userSpaceOnUse" x1="1974.3046" y1="1417.2941" x2="2508.4102" y2="1417.2941" gradientTransform="matrix(0.9618 0.2737 -0.2737 0.9618 77.7897 799.5362)">
					<stop  offset="0" style="stop-color:#FEBBBA"/>
					<stop  offset="1" style="stop-color:#FF928E"/>
				</linearGradient>
				<path style="fill:url(#SVGID_00000082347595637469382530000013524743150250134956_);" d="M2009.406,2696.134
					c-58.242-71.178-154.884-44.079-154.884-44.079c-115.167,35.868-194.687,42.432-248.586,30.547
					c-25.214,40.841-45.537,95.699-41.891,164.317c115.427,7.575,215.649-48.999,260.96-79.768
					c16.312-11.076,38.589-7.469,50.13,8.518c11.725,16.24,21.754,36.769,14.195,53.22c-14.908,32.441,21.399,54.434,27.87,42.974
					c6.472-11.463,10.797-89.099,10.797-89.099s56.216,101.609,78.299,140.788c22.082,39.182,69.402,19.751,69.402,19.751
					S2067.648,2767.313,2009.406,2696.134z"/>
				
					<linearGradient id="SVGID_00000022528981472323260740000014365028101739549881_" gradientUnits="userSpaceOnUse" x1="919.1418" y1="3214.8928" x2="-281.7577" y2="4088.2751" gradientTransform="matrix(0.9593 -0.2825 0.2825 0.9593 -256.1354 -882.4834)">
					<stop  offset="0" style="stop-color:#4F52FF"/>
					<stop  offset="1" style="stop-color:#4042E2"/>
				</linearGradient>
				<path style="fill:url(#SVGID_00000022528981472323260740000014365028101739549881_);" d="M815.279,1935.653
					c0,0,249.416-196.483,903.573,82.988c0,0,70.747,78.036,46.644,173.136c-24.102,95.101-364.781,624.229-363.135,861.538
					c0,0-246.145,168.602-589.399,41.772C812.962,3095.087,658.458,2478.778,815.279,1935.653z"/>
				
					<linearGradient id="SVGID_00000118385694457968712810000004806097956902425517_" gradientUnits="userSpaceOnUse" x1="1037.0675" y1="2320.7793" x2="1465.6621" y2="1751.5522">
					<stop  offset="0" style="stop-color:#FEBBBA"/>
					<stop  offset="1" style="stop-color:#FF928E"/>
				</linearGradient>
				<path style="fill:url(#SVGID_00000118385694457968712810000004806097956902425517_);" d="M1344.503,1670.005l-89.5,209.734
					c-8.886,20.823-5.068,45.026,10.235,61.712c30.926,33.722,93.663,77.597,192.996,39.723
					c29.547-11.267,50.956-37.403,56.125-68.602l38.076-229.859L1344.503,1670.005z"/>
				
					<linearGradient id="SVGID_00000101817089480004339320000006630689520357449881_" gradientUnits="userSpaceOnUse" x1="746.9179" y1="2978.0981" x2="-453.9779" y2="3851.4778" gradientTransform="matrix(0.9593 -0.2825 0.2825 0.9593 -256.1354 -882.4834)">
					<stop  offset="0" style="stop-color:#4F52FF"/>
					<stop  offset="1" style="stop-color:#4042E2"/>
				</linearGradient>
				<path style="fill:url(#SVGID_00000101817089480004339320000006630689520357449881_);" d="M809.196,2722.819
					c-72.194-124.017,172.521-519.965,172.521-519.965l-166.438-267.201c0,0-577.191,689.37-281.045,1019.836
					c42.455,47.374,88.656,75.71,136.644,89.625C682.862,2872.477,753.975,2773.981,809.196,2722.819z"/>
				
					<linearGradient id="SVGID_00000132793039939413952190000014223157997728469414_" gradientUnits="userSpaceOnUse" x1="1386.1372" y1="2167.062" x2="906.2024" y2="2443.8611">
					<stop  offset="0" style="stop-color:#09005D"/>
					<stop  offset="1" style="stop-color:#1A0F91"/>
				</linearGradient>
				<path style="fill:url(#SVGID_00000132793039939413952190000014223157997728469414_);" d="M803.229,2722.665
					c-3.528,1.039-7.445-0.409-9.381-3.739c-73.819-126.795,162.545-512.042,172.637-528.384c2.372-3.833,7.407-5.038,11.274-2.665
					c3.847,2.379,5.035,7.431,2.665,11.275c-2.426,3.915-241.333,393.167-172.419,511.537c2.274,3.909,0.949,8.923-2.961,11.196
					C804.466,2722.223,803.852,2722.481,803.229,2722.665z"/>
				
					<linearGradient id="SVGID_00000058589168253931342970000007454329231467770246_" gradientUnits="userSpaceOnUse" x1="1057.7495" y1="3088.8425" x2="-298.868" y2="5446.2441" gradientTransform="matrix(0.9977 -0.0682 0.0682 0.9977 -0.861 -188.153)">
					<stop  offset="0" style="stop-color:#FEBBBA"/>
					<stop  offset="1" style="stop-color:#FF928E"/>
				</linearGradient>
				<path style="fill:url(#SVGID_00000058589168253931342970000007454329231467770246_);" d="M1389.498,2709.16
					c-44.286,12.278-85.489,34.302-129.984,45.628c-49.409,12.576-98.254,27.353-148.01,38.556
					c-77.407,17.429-179.249,37.403-247.228-15.797c-5.735-4.488-51.831-56.605-55.081-54.727
					c-123.432,71.31-147.435,237.954-147.435,318.801c225.041,123.055,578.961-116.561,674.302-186.586
					c15.683-11.52,35.101-16.51,54.381-13.867c38.983,5.345,106.184,12.529,141.62,4.566
					c51.841-11.65,139.717,168.015,220.738,105.211C1752.802,2950.944,1658.142,2634.679,1389.498,2709.16z"/>
				<g>
					
						<linearGradient id="SVGID_00000055683869502415482350000007462081413978060168_" gradientUnits="userSpaceOnUse" x1="1720.0964" y1="1512.4355" x2="1282.9843" y2="1846.8929" gradientTransform="matrix(0.9938 0.1109 -0.1109 0.9938 91.6371 -164.8157)">
						<stop  offset="0" style="stop-color:#FEBBBA"/>
						<stop  offset="1" style="stop-color:#FF928E"/>
					</linearGradient>
					<path style="fill:url(#SVGID_00000055683869502415482350000007462081413978060168_);" d="M1634.549,1373.562
						c0,0,56.519,183.038,51.402,275.229c-5.115,92.192,7.995,153.845-100.002,160.479
						c-107.996,6.634-191.355-56.095-229.524-152.754c0,0-60.067-149.081-36.65-204.779
						C1343.193,1396.042,1634.549,1373.562,1634.549,1373.562z"/>
					
						<linearGradient id="SVGID_00000162319129854111883890000014807239822451192734_" gradientUnits="userSpaceOnUse" x1="1412.9976" y1="1248.4122" x2="1808.8274" y2="1758.0422" gradientTransform="matrix(0.9938 0.1109 -0.1109 0.9938 91.6371 -164.8157)">
						<stop  offset="0" style="stop-color:#09005D"/>
						<stop  offset="1" style="stop-color:#1A0F91"/>
					</linearGradient>
					<path style="fill:url(#SVGID_00000162319129854111883890000014807239822451192734_);" d="M1399.946,1594.935l13.392,1.493
						c0,0-42.557-119.34,8.146-133.818c50.704-14.477,247.131-32.221,296.17-95.748c47.276-61.242,21.115-150.079-29.539-179.773
						c-3.204-1.879-7.357-0.736-9.447,2.335l-5.347,7.863c-3.662,5.384-12.016,3.575-13.122-2.843l0,0
						c-1.048-6.086-8.854-8.26-12.678-3.411c-14.958,18.965-53.001,48.274-147.02,55.001
						c-133.406,9.545-225.721,52.808-237.922,142.909c-0.773,5.708-7.242,8.179-11.798,4.656
						c-8.995-6.957-24.129-11.44-46.704,3.612c-39.258,26.176-33.304,106.103,38.194,179.278c3.398,3.476,2.716,9.311-1.626,11.495
						c-15.301,7.696-39.024,27.419,12.788,63.015c52.999,36.414,86.72,36.848,99.667,35.031c3.485-0.488,6.106-3.321,6.28-6.835
						l3.983-80.608c0.206-4.17,3.886-7.301,8.034-6.838L1399.946,1594.935z"/>
					
						<linearGradient id="SVGID_00000060020665738687104200000018200072657924820650_" gradientUnits="userSpaceOnUse" x1="1665.8761" y1="1441.5823" x2="1228.7642" y2="1776.0396" gradientTransform="matrix(0.9938 0.1109 -0.1109 0.9938 91.6371 -164.8157)">
						<stop  offset="0" style="stop-color:#FEBBBA"/>
						<stop  offset="1" style="stop-color:#FF928E"/>
					</linearGradient>
					<path style="fill:url(#SVGID_00000060020665738687104200000018200072657924820650_);" d="M1401.368,1612.052
						c0,0-16.552-114.741-70.033-89.053c-53.481,25.688,12.007,127.833,51.734,136.49L1401.368,1612.052z"/>
				</g>
				
					<linearGradient id="SVGID_00000090276126305396587410000013430454884956197766_" gradientUnits="userSpaceOnUse" x1="12820.7754" y1="3602.4482" x2="12126.0664" y2="3792.8499" gradientTransform="matrix(-1.053 -0.0342 -0.0325 0.9995 14684.6182 -332.1961)">
					<stop  offset="0" style="stop-color:#09005D"/>
					<stop  offset="1" style="stop-color:#1A0F91"/>
				</linearGradient>
				<path style="fill:url(#SVGID_00000090276126305396587410000013430454884956197766_);" d="M1225.83,3056.833
					c0.695,0.022,1.389,0.029,2.089,0.015l908.172-14.052c22.45-0.342,40.292-17.9,39.852-39.214
					c-0.44-21.32-19.07-38.669-41.453-37.962l-908.172,14.051c-22.451,0.342-40.291,17.901-39.851,39.213
					C1186.896,3039.534,1204.33,3056.134,1225.83,3056.833z"/>
			</g>
			<g>
				<g>
					<g>
						
							<linearGradient id="SVGID_00000067212279168750412060000006246305419645575314_" gradientUnits="userSpaceOnUse" x1="1563.4186" y1="1478.2664" x2="1221.8813" y2="1938.1132">
							<stop  offset="0" style="stop-color:#4F52FF"/>
							<stop  offset="1" style="stop-color:#4042E2"/>
						</linearGradient>
						<path style="fill:url(#SVGID_00000067212279168750412060000006246305419645575314_);" d="M1579.331,1727.236
							c-161.808,13.725-294.19-112.975-295.123-114.879v-28.554c0.895,1.818,140.386,142.627,294.191,129.582L1579.331,1727.236z"/>
					</g>
					
						<linearGradient id="SVGID_00000076572167754780081680000002033373289511735968_" gradientUnits="userSpaceOnUse" x1="1696.9528" y1="1599.6818" x2="1493.8165" y2="1865.321">
						<stop  offset="0" style="stop-color:#4F52FF"/>
						<stop  offset="1" style="stop-color:#4042E2"/>
					</linearGradient>
					<path style="fill:url(#SVGID_00000076572167754780081680000002033373289511735968_);" d="M1645.292,1720.219
						c0,10.767-7.774,19.496-17.364,19.496h-46.302c-9.589,0-17.363-8.729-17.363-19.496l0,0c0-10.769,7.774-19.498,17.363-19.498
						h46.302C1637.518,1700.721,1645.292,1709.45,1645.292,1720.219L1645.292,1720.219z"/>
				</g>
				<g>
					
						<linearGradient id="SVGID_00000164503389718647674520000011161883387692360601_" gradientUnits="userSpaceOnUse" x1="2039.2108" y1="1364.1697" x2="525.4976" y2="1614.2611" gradientTransform="matrix(0.9856 -0.1691 0.1691 0.9856 -316.3687 156.5187)">
						<stop  offset="0" style="stop-color:#4F52FF"/>
						<stop  offset="1" style="stop-color:#4042E2"/>
					</linearGradient>
					<path style="fill:url(#SVGID_00000164503389718647674520000011161883387692360601_);" d="M1366.875,1440.119
						c0,0-36.954-197.165,190.981-198.273c3.156-0.015,3.681-4.538,0.606-5.247c-62.441-14.389-243.68-35.696-246.413,200.908
						C1346.781,1450.014,1366.875,1440.119,1366.875,1440.119z"/>
					
						<linearGradient id="SVGID_00000090274275665387332680000012952382246094170283_" gradientUnits="userSpaceOnUse" x1="1489.52" y1="1308.8417" x2="1322.1007" y2="1572.2477">
						<stop  offset="0" style="stop-color:#4F52FF"/>
						<stop  offset="1" style="stop-color:#4042E2"/>
					</linearGradient>
					<path style="fill:url(#SVGID_00000090274275665387332680000012952382246094170283_);" d="M1325.105,1416.067
						c-88.949,18.052-78.015,130.54-78.015,130.54c-6.409,81.633,17.416,122.099,47.948,141.382
						c20.857,13.175,47.116,14.394,69.138,3.282c22.021-11.114,36.607-32.962,38.423-57.563c1.643-22.216,3.523-43.334,5.173-50.834
						C1411.766,1564.701,1414.057,1398.012,1325.105,1416.067z"/>
				</g>
				
					<linearGradient id="SVGID_00000145057199090138006230000009227131541238288798_" gradientUnits="userSpaceOnUse" x1="1332.3759" y1="1568.6924" x2="1033.2529" y2="968.2142">
					<stop  offset="0" style="stop-color:#4F52FF"/>
					<stop  offset="1" style="stop-color:#4042E2"/>
				</linearGradient>
				<path style="fill:url(#SVGID_00000145057199090138006230000009227131541238288798_);" d="M1333.277,1444.51
					c-18.466-3.21-36.676,6.603-44.104,23.811c-53.161,123.153,12.111,203.264,44.154,204.935
					c33.774,1.759,33.089-160.724,25.919-202.379C1356.239,1453.422,1345.149,1446.575,1333.277,1444.51z"/>
			</g>
		</g>
		<g>
			
				<linearGradient id="SVGID_00000079459273162785395740000003300452140500499342_" gradientUnits="userSpaceOnUse" x1="1857.5847" y1="3507.1206" x2="1896.321" y2="2654.9338">
				<stop  offset="0" style="stop-color:#09005D"/>
				<stop  offset="1" style="stop-color:#1A0F91"/>
			</linearGradient>
			<path style="fill:url(#SVGID_00000079459273162785395740000003300452140500499342_);" d="M497.233,3087.884
				c-1.516-11.216,0.548-22.817,5.625-31.629c5.077-8.813,12.639-13.917,20.617-13.917h2702.689
				c10.493,0,20.261,7.657,25.914,20.316c5.653,12.658,6.41,28.568,2.011,42.208l-29.288,90.77
				c-6.707,20.787-21.239,34.096-37.229,34.096H542.021c-14.875,0-27.661-15.104-30.485-36.018L497.233,3087.884z"/>
			<path style="fill:#91B3FA;" d="M3187.573,3233.077H542.02c-16.539,0-30.757-16.369-33.804-38.918l-14.303-105.828
				c-1.615-11.978,0.589-24.279,6.046-33.746c5.706-9.911,14.277-15.597,23.517-15.597h2702.688
				c11.906,0,22.736,8.335,28.972,22.298c6.01,13.459,6.811,30.132,2.142,44.602l-29.292,90.773
				C3220.851,3218.784,3204.985,3233.077,3187.573,3233.077z M500.551,3087.435l14.303,105.828
				c2.59,19.191,14.018,33.118,27.167,33.118h2645.553c14.453,0,27.814-12.471,34.04-31.774l29.292-90.773
				c4.176-12.942,3.473-27.827-1.884-39.815c-5.127-11.481-13.671-18.334-22.857-18.334H523.476
				c-6.779,0-13.237,4.463-17.716,12.242C501.025,3066.141,499.128,3076.896,500.551,3087.435L500.551,3087.435z"/>
		</g>
		<g>
			
				<linearGradient id="SVGID_00000145049794125407085270000016615598702774418857_" gradientUnits="userSpaceOnUse" x1="2407.3062" y1="2056.0266" x2="2698.8503" y2="2801.5449">
				<stop  offset="0" style="stop-color:#09005D"/>
				<stop  offset="1" style="stop-color:#1A0F91"/>
			</linearGradient>
			<path style="fill:url(#SVGID_00000145049794125407085270000016615598702774418857_);" d="M1926.393,2010.941
				c-15.266,124.742-83.943,631.561-103.601,776.372c-2.765,20.366,13.41,38.276,33.955,37.688l1165.018-33.338
				c15.245-0.436,28.245-11.175,31.552-26.064l181.229-816.16c4.791-21.577-12.385-41.749-34.451-40.456l-1242.602,72.782
				C1941.426,1982.705,1928.348,1994.967,1926.393,2010.941z"/>
			<g>
				
					<linearGradient id="SVGID_00000108288890496146728540000014169890421132040080_" gradientUnits="userSpaceOnUse" x1="2372.199" y1="2352.4121" x2="2538.7961" y2="3376.9797">
					<stop  offset="0" style="stop-color:#09005D"/>
					<stop  offset="1" style="stop-color:#1A0F91"/>
				</linearGradient>
				<path style="fill:url(#SVGID_00000108288890496146728540000014169890421132040080_);" d="M2394.687,2522.761l-172.182,488.706
					l400.368,8.487l33.336-494.26c1.564-23.194-17.671-42.45-40.868-40.909l-186.972,12.414
					C2413.04,2498.217,2399.791,2508.271,2394.687,2522.761z"/>
				<path style="fill:#91B3FA;" d="M2625.997,3023.367l-3.198-0.065l-404.992-8.583l173.721-493.071
					c5.555-15.771,19.93-26.679,36.62-27.791l186.97-12.413c12.05-0.775,23.795,3.63,32.31,12.151
					c8.515,8.525,12.933,20.306,12.122,32.326L2625.997,3023.367z M2227.198,3008.218l392.547,8.322l33.121-491.07
					c0.683-10.091-3.028-19.986-10.176-27.14c-7.148-7.158-17.026-10.863-27.127-10.202l-186.971,12.413
					c-14.015,0.932-26.084,10.091-30.747,23.331L2227.198,3008.218z"/>
			</g>
			<g>
				
					<linearGradient id="SVGID_00000054264181305099759640000009994779095670617988_" gradientUnits="userSpaceOnUse" x1="2297.1973" y1="2948.3955" x2="2788.6565" y2="3270.4817">
					<stop  offset="0" style="stop-color:#09005D"/>
					<stop  offset="1" style="stop-color:#1A0F91"/>
				</linearGradient>
				<path style="fill:url(#SVGID_00000054264181305099759640000009994779095670617988_);" d="M2060.189,3018.43L2060.189,3018.43
					c-4.412,13.448,5.605,27.278,19.757,27.278h627c11.484,0,20.794-9.31,20.794-20.794v-26.892
					c0-11.834-9.862-21.282-21.686-20.775l-626.999,26.892C2070.405,3004.509,2062.889,3010.203,2060.189,3018.43z"/>
				<path style="fill:#91B3FA;" d="M2706.947,3049.056h-627c-7.831,0-14.96-3.639-19.554-9.983s-5.827-14.247-3.385-21.686
					c3.113-9.496,11.916-16.163,21.902-16.595l627-26.892c6.645-0.294,12.942,2.093,17.736,6.687
					c4.8,4.598,7.442,10.791,7.442,17.435v26.892C2731.089,3038.226,2720.259,3049.056,2706.947,3049.056z M2706.97,2980.574
					c-0.258,0-0.513,0.006-0.772,0.016l-627,26.892c-7.217,0.311-13.577,5.131-15.826,11.991l0,0
					c-1.766,5.379-0.873,11.088,2.446,15.673c3.319,4.584,8.469,7.213,14.129,7.213h627c9.62,0,17.445-7.825,17.445-17.445v-26.892
					c0-4.803-1.91-9.277-5.379-12.599C2715.733,2982.281,2711.483,2980.574,2706.97,2980.574z"/>
			</g>
			<path style="fill:#91B3FA;" d="M1908.793,2526.537l-8.265-1.042l57.244-451.421c3.547-28.007,26.567-49.555,54.738-51.256
				l1073.805-64.848l0.504,8.313l-1073.805,64.85c-24.177,1.456-43.936,19.954-46.978,43.984L1908.793,2526.537z"/>
			
				<rect x="1832.906" y="2699.298" transform="matrix(0.1251 -0.9921 0.9921 0.1251 -1035.4583 4232.7578)" style="fill:#91B3FA;" width="98.512" height="8.33"/>
		</g>
		<g>
			
				<linearGradient id="SVGID_00000090261053077094029720000013619780510911194512_" gradientUnits="userSpaceOnUse" x1="2620.8223" y1="707.5063" x2="259.9594" y2="5117.7949">
				<stop  offset="0" style="stop-color:#FF928E"/>
				<stop  offset="1" style="stop-color:#FE7062"/>
			</linearGradient>
			<path style="fill:url(#SVGID_00000090261053077094029720000013619780510911194512_);" d="M2280.607,811.979v251.332
				c0,29.862,23.464,54.454,53.292,55.855l314.298,14.768c31.878,1.497,58.542-23.944,58.542-55.856V811.979
				c0-30.882-25.035-55.917-55.917-55.917h-314.298C2305.643,756.063,2280.607,781.097,2280.607,811.979z"/>
			<g>
				<g>
					<g>
						<g>
							<g>
								<g>
									<path style="fill:#FFFFFF;" d="M2400.563,879.623l-12.275-45.356l-35.797-19.503l-4.771,8.73l32.039,17.294l38.182,139.997
										l1.18,4.159h155.781c15.173,0,29.14-7.447,37.375-20.196l6.984-9.219c7.516-11.646,12.473-25.034,12.473-38.898v-37.008
										H2400.563z M2620.451,916.631c0,11.928-3.76,23.535-10.237,33.553l-6.176,10.38c-6.375,9.876-17.373,16.857-29.135,16.857
										h-148.137l-8.106-29.924l-15.365-56.589h217.156V916.631z"/>
								</g>
								<g>
									<path style="fill:#FFFFFF;" d="M2610.738,1035.73c0,2.758-2.245,5.636-5.014,5.636h-182.78
										c-2.771,0-5.612-4.327-5.612-7.084v-86.189c0-0.949,0.562-0.752,1.023-1.509l8.411,30.837h1.851v52.66h177.107
										C2608.493,1030.082,2610.738,1032.96,2610.738,1035.73z"/>
								</g>
							</g>
							<g>
								<rect x="2509.264" y="884.634" style="fill:#FFFFFF;" width="6.672" height="93.823"/>
								<g>
									<rect x="2450.33" y="884.634" style="fill:#FFFFFF;" width="6.672" height="93.823"/>
									<rect x="2566.809" y="884.634" style="fill:#FFFFFF;" width="6.672" height="93.823"/>
								</g>
							</g>
							<g>
								<rect x="2405.829" y="912.233" style="fill:#FFFFFF;" width="217.01" height="5.966"/>
								<rect x="2415.302" y="944.892" style="fill:#FFFFFF;" width="202.102" height="5.967"/>
							</g>
						</g>
						<path style="fill:#FFFFFF;" d="M2446.354,1047.804c-11.903,0-21.551,9.649-21.551,21.551c0,11.903,9.648,21.551,21.551,21.551
							c11.902,0,21.551-9.648,21.551-21.551C2467.905,1057.453,2458.256,1047.804,2446.354,1047.804z M2446.354,1082.363
							c-7.184,0-13.008-5.824-13.008-13.008c0-7.184,5.824-13.007,13.008-13.007c7.184,0,13.007,5.824,13.007,13.007
							C2459.362,1076.539,2453.538,1082.363,2446.354,1082.363z"/>
						<path style="fill:#FFFFFF;" d="M2580.279,1047.804c-11.903,0-21.551,9.649-21.551,21.551c0,11.903,9.649,21.551,21.551,21.551
							c11.902,0,21.551-9.648,21.551-21.551C2601.83,1057.453,2592.181,1047.804,2580.279,1047.804z M2580.279,1082.363
							c-7.184,0-13.008-5.824-13.008-13.008c0-7.184,5.824-13.007,13.008-13.007c7.184,0,13.008,5.824,13.008,13.007
							C2593.286,1076.539,2587.463,1082.363,2580.279,1082.363z"/>
					</g>
					<path style="fill:#FFFFFF;" d="M2374.696,823.461c0,5.592-4.533,10.125-10.125,10.125h-33.691
						c-5.592,0-10.125-4.533-10.125-10.125l0,0c0-5.592,4.533-10.125,10.125-10.125h33.691
						C2370.162,813.336,2374.696,817.869,2374.696,823.461L2374.696,823.461z"/>
				</g>
			</g>
		</g>
		<g>
			
				<linearGradient id="SVGID_00000014603127419425963260000007117405828442370478_" gradientUnits="userSpaceOnUse" x1="1986.4119" y1="367.9013" x2="-374.4446" y2="4778.1782">
				<stop  offset="0" style="stop-color:#FF928E"/>
				<stop  offset="1" style="stop-color:#FE7062"/>
			</linearGradient>
			<path style="fill:url(#SVGID_00000014603127419425963260000007117405828442370478_);" d="M1599.281,521.417v269.6
				c0,32.032,25.17,58.412,57.166,59.914l337.141,15.841c34.195,1.606,62.797-25.685,62.797-59.916V521.417
				c0-33.127-26.855-59.981-59.981-59.981h-337.141C1626.136,461.436,1599.281,488.29,1599.281,521.417z"/>
			<g>
				<path style="fill:#FFFFFF;" d="M1944.541,786.125h-232.336c-17.411,0-31.575-14.166-31.575-31.577V584.641
					c0-17.411,14.164-31.577,31.575-31.577h232.336c17.411,0,31.577,14.166,31.577,31.577v169.907
					C1976.118,771.959,1961.952,786.125,1944.541,786.125z M1712.205,573.872c-5.936,0-10.766,4.83-10.766,10.768v169.907
					c0,5.938,4.83,10.768,10.766,10.768h232.336c5.938,0,10.768-4.831,10.768-10.768V584.641c0-5.938-4.831-10.768-10.768-10.768
					H1712.205z"/>
				<path style="fill:#FFFFFF;" d="M1828.577,673.343c-2.107,0-4.217-0.638-6.019-1.919l-130.193-92.326
					c-4.686-3.322-5.792-9.817-2.467-14.505c3.327-4.686,9.824-5.79,14.506-2.467l124.169,88.054l122.55-87.044
					c4.684-3.329,11.179-2.233,14.508,2.457c3.329,4.686,2.227,11.181-2.457,14.508l-128.571,91.32
					C1832.798,672.703,1830.688,673.343,1828.577,673.343z"/>
				<path style="fill:#FFFFFF;" d="M1699.99,778.858l-3.014-20.59l1.408,10.309l-8.718-5.668c2.412-3.875,49.367-86,80.34-140.256
					c2.845-4.989,9.191-6.737,14.192-3.878c4.991,2.847,6.726,9.204,3.879,14.193c0,0-20.085,35.182-40.21,70.371
					c-10.065,17.598-20.14,35.199-27.718,48.401C1705.035,778.069,1705.035,778.069,1699.99,778.858z"/>
				<path style="fill:#FFFFFF;" d="M1956.368,778.853c-5.03-0.799-5.03-0.799-20.134-27.112
					c-7.58-13.205-17.655-30.803-27.719-48.401c-20.126-35.188-40.21-70.371-40.21-70.371c-2.847-4.989-1.112-11.346,3.879-14.195
					c4.987-2.849,11.343-1.109,14.195,3.88c30.968,54.25,77.92,136.372,80.336,140.254l-8.716,5.67L1956.368,778.853z"/>
			</g>
		</g>
		<g>
			
				<linearGradient id="SVGID_00000036967168913949387650000005170659565119342006_" gradientUnits="userSpaceOnUse" x1="3138.8979" y1="984.836" x2="778.0391" y2="5395.1172">
				<stop  offset="0" style="stop-color:#FF928E"/>
				<stop  offset="1" style="stop-color:#FE7062"/>
			</linearGradient>
			<path style="fill:url(#SVGID_00000036967168913949387650000005170659565119342006_);" d="M2670.857,1358.095v237.136
				c0,28.175,22.139,51.378,50.282,52.7l296.544,13.934c30.077,1.413,55.235-22.592,55.235-52.701v-251.068
				c0-29.138-23.621-52.758-52.758-52.758h-296.544C2694.479,1305.337,2670.857,1328.957,2670.857,1358.095z"/>
			<path style="fill:#FFFFFF;" d="M2746.738,1643.05c-4.313,0-8.245-1.309-11.234-4.051l-8.581-7.871
				c-4.156-3.813-5.881-9.667-4.858-16.484c0.966-6.438,4.307-13.046,9.406-18.606l5.722-6.238c0.404-0.441,0.818-0.872,1.239-1.295
				l106.956-106.953c1.029-1.029,2.695-1.029,3.724,0c1.029,1.028,1.029,2.696,0,3.724l-106.953,106.952
				c-0.367,0.368-0.73,0.746-1.084,1.132l-5.722,6.239c-4.398,4.795-7.268,10.416-8.08,15.827
				c-0.755,5.032,0.385,9.229,3.211,11.821l8.58,7.871c6.031,5.532,18.454,2.22,27.126-7.235l5.722-6.238
				c0.354-0.386,0.699-0.778,1.034-1.177l85.413-101.59c0.934-1.113,2.596-1.259,3.71-0.321c1.114,0.935,1.257,2.597,0.321,3.71
				l-85.412,101.589c-0.384,0.458-0.78,0.909-1.186,1.35l-5.72,6.236C2763.183,1638.954,2754.366,1643.05,2746.738,1643.05z
				 M2749.331,1626.27c-2.92,0-5.542-0.88-7.552-2.724c-5.95-5.459-3.951-16.996,4.552-26.267c3.891-4.241,8.574-7.342,13.187-8.731
				c5.092-1.535,9.562-0.849,12.592,1.931c3.028,2.778,4.096,7.173,3.008,12.378c-0.986,4.715-3.672,9.648-7.563,13.89
				C2761.925,1622.885,2755.056,1626.27,2749.331,1626.27z M2764.589,1593.018c-1.34,0-2.636,0.297-3.553,0.573
				c-3.719,1.12-7.563,3.694-10.823,7.249c-6.182,6.739-8.459,15.536-4.874,18.824c3.187,2.923,11.497,0.976,18.334-6.479v-0.001
				c3.26-3.554,5.494-7.604,6.289-11.407c0.401-1.918,0.751-5.433-1.413-7.417
				C2767.442,1593.344,2765.992,1593.018,2764.589,1593.018z M2897.767,1478.73c-0.597,0-1.199-0.202-1.693-0.618
				c-1.114-0.935-1.257-2.597-0.321-3.71l30.81-36.646l1.932,1.175c23.996,14.611,52.781,10.621,71.627-9.928
				c12.199-13.299,18.128-30.997,16.269-48.557c-0.25-2.362-1.763-4.221-4.046-4.974c-1.811-0.598-4.445-0.478-6.398,1.652
				l-33.201,36.197c-2.895,3.157-7.17,4.822-11.442,4.455l-17.861-1.539c-6.281-0.541-11.425-5.258-12.506-11.471l-3.073-17.662
				c-0.734-4.221,0.556-8.625,3.452-11.783l33.201-36.197c1.953-2.129,1.846-4.762,1.095-6.517
				c-0.946-2.209-2.929-3.555-5.304-3.602c-17.62-0.329-34.777,7.094-46.975,20.393c-18.847,20.548-20.342,49.569-3.718,72.216
				l1.338,1.823l-39.92,39.919c-1.029,1.029-2.695,1.029-3.724,0s-1.029-2.696,0-3.724l36.749-36.748
				c-16.753-24.449-14.695-55.146,5.393-77.046c13.219-14.412,31.758-22.494,50.958-22.098c4.438,0.085,8.287,2.689,10.045,6.793
				c1.785,4.168,0.997,8.824-2.055,12.152l-33.201,36.196c-1.799,1.962-2.6,4.698-2.144,7.32l3.073,17.661
				c0.671,3.859,3.866,6.79,7.768,7.126l17.861,1.539c2.658,0.233,5.309-0.806,7.107-2.766l33.201-36.198
				c3.053-3.325,7.622-4.511,11.93-3.093c4.241,1.398,7.167,5.008,7.635,9.421c2.019,19.063-4.406,38.261-17.625,52.674
				c-20.089,21.899-50.493,26.594-76.295,12.013l-27.926,33.214C2899.264,1478.411,2898.518,1478.73,2897.767,1478.73z"/>
			<g>
				<path style="fill:#FFFFFF;" d="M2977.938,1644.415c-0.7,0-1.403-0.03-2.111-0.089c-6.666-0.563-12.667-3.727-16.899-8.908
					l-99.248-121.514c-4.29-5.252-3.647-12.858,1.463-17.316l19.573-17.077c5.111-4.457,12.735-4.06,17.355,0.899l106.933,114.809
					c4.559,4.895,6.879,11.27,6.533,17.951c-0.346,6.68-3.313,12.781-8.353,17.178l-9.206,8.031
					C2989.473,1642.31,2983.844,1644.415,2977.938,1644.415z M2885.334,1484.803l-19.573,17.077
					c-2.238,1.952-2.519,5.282-0.641,7.581l99.248,121.514c3.018,3.694,7.297,5.951,12.051,6.352
					c4.759,0.394,9.35-1.104,12.943-4.24l9.206-8.032c3.595-3.135,5.71-7.485,5.957-12.249c0.247-4.764-1.407-9.31-4.658-12.8
					l-106.933-114.809C2890.911,1483.026,2887.574,1482.851,2885.334,1484.803L2885.334,1484.803z"/>
			</g>
			<path style="fill:#FFFFFF;" d="M2865.928,1498.761l-86.141-100.752c-1.357-0.037-2.621-0.469-3.664-1.268l-25.836-19.819
				c-0.711-0.546-1.275-1.227-1.679-2.025l-11.449-22.66c-1.404-2.775-0.547-6.315,2.083-8.608l6.452-5.63
				c2.628-2.294,6.25-2.664,8.812-0.895l20.928,14.437c0.694,0.478,1.271,1.088,1.708,1.814l16.716,27.721
				c0.883,1.464,1.1,3.223,0.654,4.948l88.746,99.689L2865.928,1498.761z M2781.922,1392.399l84.793,99.176l8.807-6.63
				l-87.254-98.013l0.904-1.633c0.315-0.568,0.384-1.158,0.177-1.502l-16.716-27.72c-0.048-0.079-0.109-0.144-0.185-0.196
				l-20.932-14.441c-0.471-0.326-1.507-0.215-2.358,0.529l-6.453,5.631c-0.853,0.743-1.103,1.753-0.844,2.263l11.447,22.657
				c0.045,0.089,0.107,0.164,0.188,0.225l25.833,19.816c0.229,0.176,0.634,0.231,1.083,0.138L2781.922,1392.399z"/>
		</g>
		<g>
			
				<linearGradient id="SVGID_00000044135331029978691020000016792883653601942673_" gradientUnits="userSpaceOnUse" x1="1506.8645" y1="111.1955" x2="-853.9922" y2="4521.4727">
				<stop  offset="0" style="stop-color:#FF928E"/>
				<stop  offset="1" style="stop-color:#FE7062"/>
			</linearGradient>
			<path style="fill:url(#SVGID_00000044135331029978691020000016792883653601942673_);" d="M875.086,692.247v283.554
				c0,33.69,26.472,61.435,60.125,63.016l354.592,16.661c35.965,1.689,66.047-27.014,66.047-63.017V692.247
				c0-34.842-28.245-63.086-63.085-63.086H938.172C903.331,629.162,875.086,657.406,875.086,692.247z"/>
			<g>
				<g>
					<g>
						<g>
							<path style="fill:#FFFFFF;" d="M1128.598,867.287c-0.037,25.198-1.758,50.447-6.182,75.287
								c-1.12,6.206-2.418,12.381-3.966,18.498c-1.55,6.114-3.342,12.174-5.535,18.101c-2.212,5.911-4.779,11.737-8.26,17.061
								c-1.754,2.643-3.744,5.175-6.199,7.258c-1.228,1.035-2.575,1.952-4.057,2.625c-1.479,0.668-3.096,1.091-4.737,1.121
								c-1.638,0.047-3.28-0.275-4.788-0.884c-1.515-0.604-2.896-1.481-4.152-2.482c-2.515-2.018-4.548-4.523-6.333-7.144
								c-3.543-5.287-6.145-11.101-8.38-17.002c-2.221-5.916-4.029-11.972-5.595-18.084c-1.563-6.112-2.873-12.285-4.003-18.487
								c-2.254-12.41-3.791-24.937-4.827-37.5c-1.03-12.565-1.546-25.17-1.609-37.777c-0.03-6.302,0.14-12.604,0.364-18.902
								c0.235-6.298,0.58-12.591,1.043-18.876c0.928-12.568,2.316-25.109,4.377-37.546c1.036-6.218,2.242-12.408,3.693-18.544
								c1.455-6.133,3.145-12.22,5.242-18.173c1.054-2.974,2.205-5.916,3.52-8.789c1.313-2.873,2.782-5.682,4.507-8.339
								c1.73-2.645,3.718-5.169,6.195-7.19c1.238-1.002,2.601-1.874,4.096-2.463c1.489-0.599,3.103-0.901,4.71-0.84
								c1.608,0.046,3.191,0.448,4.653,1.094c1.465,0.649,2.809,1.533,4.045,2.534c2.47,2.015,4.515,4.479,6.328,7.066
								c3.605,5.211,6.324,10.956,8.679,16.803c2.338,5.862,4.268,11.877,5.95,17.953c1.674,6.08,3.093,12.227,4.321,18.41
								C1126.552,816.833,1128.525,842.085,1128.598,867.287z M1126.739,867.287c0.023-12.555-0.452-25.114-1.492-37.626
								c-1.025-12.511-2.577-24.986-4.89-37.324c-1.155-6.167-2.5-12.3-4.1-18.365c-1.606-6.061-3.46-12.061-5.717-17.906
								c-2.273-5.828-4.91-11.554-8.408-16.727c-1.758-2.569-3.741-5.008-6.122-6.992c-1.19-0.986-2.481-1.853-3.878-2.491
								c-1.397-0.631-2.9-1.044-4.43-1.085c-1.528-0.049-3.055,0.26-4.469,0.844c-1.42,0.578-2.721,1.429-3.908,2.412
								c-2.376,1.982-4.301,4.474-5.974,7.095c-1.67,2.632-3.091,5.424-4.36,8.282c-1.269,2.858-2.381,5.789-3.395,8.752
								c-2.017,5.933-3.634,12.002-5.014,18.12c-1.377,6.121-2.512,12.297-3.474,18.5c-1.918,12.408-3.165,24.917-3.954,37.449
								c-0.796,12.533-1.071,25.096-1.05,37.653c-0.033,12.554,0.385,25.112,1.315,37.633c0.937,12.519,2.373,25.006,4.52,37.371
								c1.076,6.181,2.333,12.33,3.839,18.417c1.509,6.084,3.259,12.111,5.414,17.987c2.166,5.859,4.698,11.624,8.122,16.817
								c1.723,2.574,3.684,5.016,6.06,6.952c1.187,0.96,2.48,1.791,3.876,2.36c1.392,0.571,2.886,0.888,4.384,0.837
								c1.496-0.037,2.971-0.434,4.339-1.065c1.372-0.635,2.636-1.508,3.797-2.502c2.325-2.003,4.244-4.476,5.936-7.072
								c3.363-5.234,5.86-11.012,8.002-16.882c2.126-5.886,3.856-11.918,5.35-18.006c1.489-6.089,2.732-12.242,3.797-18.425
								c2.133-12.366,3.55-24.855,4.492-37.374C1126.304,892.405,1126.744,879.846,1126.739,867.287z"/>
						</g>
						<g>
							<path style="fill:#FFFFFF;" d="M1089.303,1010.918c-1.913,0-3.92-0.398-5.796-1.156c-1.723-0.689-3.382-1.675-5.06-3.012
								c-2.513-2.016-4.758-4.54-7.08-7.951c-3.222-4.808-6.007-10.445-8.778-17.768c-2.093-5.576-3.962-11.618-5.718-18.475
								c-1.508-5.895-2.835-12.027-4.06-18.743c-2.159-11.898-3.752-24.277-4.873-37.857c-1.013-12.339-1.557-25.144-1.621-38.061
								c-0.034-6.749,0.164-13.415,0.365-19.048c0.242-6.404,0.593-12.801,1.053-19.016c1.007-13.653,2.451-26.041,4.416-37.878
								c1.123-6.745,2.346-12.891,3.741-18.794c1.635-6.895,3.386-12.963,5.353-18.543c1.192-3.37,2.384-6.347,3.645-9.097
								c1.531-3.349,3.089-6.232,4.765-8.815c2.267-3.46,4.473-6.01,6.954-8.031c1.655-1.341,3.353-2.357,5.06-3.03
								c1.966-0.793,4.109-1.167,6.191-1.095c1.985,0.058,4.011,0.528,5.988,1.402c1.661,0.735,3.253,1.728,4.869,3.037
								c2.47,2.016,4.697,4.493,7.023,7.811c3.289,4.751,6.17,10.319,9.078,17.538c2.218,5.558,4.205,11.557,6.082,18.349
								c1.631,5.913,3.063,12.02,4.384,18.676c4.613,23.512,6.894,48.341,6.974,75.913v0.014c-0.04,27.744-2.082,52.581-6.24,75.929
								c-1.211,6.713-2.526,12.845-4.02,18.759c-1.735,6.849-3.584,12.891-5.651,18.478c-2.749,7.339-5.49,12.992-8.632,17.796
								c-2.279,3.437-4.465,5.986-6.894,8.047c-1.63,1.371-3.232,2.403-4.91,3.167c-2.055,0.925-4.129,1.409-6.184,1.445
								C1089.584,1010.914,1089.444,1010.918,1089.303,1010.918z M1087.397,732.439c-0.92,0-1.866,0.194-2.772,0.57
								c-0.974,0.398-1.97,1.018-2.971,1.851c-1.802,1.498-3.463,3.485-5.225,6.242c-1.432,2.26-2.774,4.813-4.096,7.797
								c-1.129,2.539-2.202,5.303-3.278,8.451c-1.805,5.308-3.411,11.114-4.905,17.736c-1.29,5.734-2.41,11.705-3.426,18.256
								c-1.797,11.611-3.078,23.753-3.916,37.111c-0.728,11.42-1.069,23.659-1.044,37.415c-0.033,12.697,0.406,25.263,1.304,37.369
								c0.995,13.285,2.458,25.395,4.476,37.014c1.132,6.497,2.37,12.439,3.787,18.162c1.631,6.573,3.364,12.329,5.295,17.601
								c2.481,6.708,4.94,11.815,7.74,16.061c1.803,2.693,3.496,4.647,5.314,6.128c1.004,0.814,1.995,1.423,2.942,1.808
								c1.009,0.412,1.954,0.559,2.891,0.574c0.953-0.025,1.931-0.273,2.934-0.735c0.959-0.444,1.953-1.105,2.948-1.958
								c1.79-1.542,3.458-3.54,5.251-6.29c2.744-4.267,5.173-9.399,7.63-16.133c1.909-5.289,3.622-11.058,5.231-17.625
								c1.394-5.691,2.619-11.636,3.745-18.173c1.986-11.515,3.442-23.624,4.449-37.021c0.922-12.078,1.386-24.646,1.38-37.362
								v-0.007c0.024-12.665-0.472-25.219-1.478-37.316c-1.091-13.311-2.673-25.396-4.84-36.949
								c-1.204-6.436-2.526-12.357-4.042-18.105c-1.725-6.512-3.554-12.242-5.59-17.517c-2.59-6.641-5.141-11.729-8.023-15.994
								c-1.854-2.704-3.583-4.686-5.433-6.228c-1.03-0.853-2.061-1.521-3.058-1.976c-1.048-0.474-2.064-0.731-3.009-0.753
								C1087.537,732.439,1087.467,732.439,1087.397,732.439z"/>
						</g>
					</g>
					<g>
						<g>
							<path style="fill:#FFFFFF;" d="M1191.918,867.287c-0.087,16.227-2.165,32.46-6.491,48.109
								c-4.404,15.612-11.04,30.631-20.051,44.116c-4.505,6.734-9.611,13.074-15.314,18.826
								c-5.702,5.749-12.007,10.909-18.851,15.234c-6.852,4.308-14.25,7.756-21.995,10.095c-7.742,2.346-15.822,3.568-23.911,3.576
								c-8.088-0.001-16.171-1.216-23.916-3.556c-7.749-2.333-15.155-5.776-22.012-10.08c-6.851-4.319-13.166-9.475-18.876-15.222
								c-5.714-5.749-10.828-12.087-15.344-18.822c-9.028-13.487-15.679-28.512-20.102-44.132
								c-2.177-7.825-3.795-15.804-4.867-23.853c-1.066-8.051-1.602-16.17-1.638-24.292c0.041-8.122,0.582-16.241,1.653-24.29
								c1.078-8.048,2.701-16.025,4.884-23.845c4.433-15.615,11.095-30.631,20.129-44.102c4.518-6.729,9.633-13.06,15.346-18.801
								c5.711-5.74,12.02-10.89,18.871-15.196c6.855-4.292,14.258-7.709,21.995-10.042c7.731-2.342,15.8-3.563,23.878-3.571
								c8.078,0.015,16.146,1.243,23.874,3.591c7.732,2.337,15.129,5.762,21.978,10.059c6.842,4.311,13.144,9.466,18.845,15.208
								c5.702,5.743,10.808,12.076,15.315,18.805c9.017,13.47,15.664,28.48,20.078,44.085
								C1189.731,834.83,1191.821,851.061,1191.918,867.287z M1189.788,867.287c-0.023-16.043-2.014-32.102-6.231-47.588
								c-4.239-15.462-10.623-30.389-19.411-43.814c-4.393-6.705-9.38-13.025-14.968-18.77
								c-5.589-5.736-11.762-10.926-18.515-15.239c-6.759-4.289-14.06-7.742-21.714-10.077c-7.652-2.336-15.639-3.565-23.642-3.592
								c-8.002,0.034-15.988,1.269-23.635,3.612c-7.651,2.341-14.945,5.8-21.697,10.094c-6.745,4.319-12.909,9.512-18.489,15.251
								c-5.577,5.748-10.555,12.069-14.937,18.775c-8.771,13.422-15.142,28.344-19.361,43.798
								c-2.102,7.735-3.624,15.624-4.655,23.571c-1.033,7.948-1.543,15.963-1.561,23.98c0.024,8.018,0.538,16.031,1.577,23.978
								c1.036,7.946,2.563,15.832,4.671,23.565c4.229,15.448,10.611,30.359,19.387,43.768c4.383,6.698,9.362,13.013,14.94,18.753
								c5.58,5.729,11.739,10.919,18.484,15.223c6.75,4.282,14.042,7.716,21.68,10.057c7.632,2.346,15.606,3.587,23.597,3.628
								c7.992-0.034,15.968-1.267,23.604-3.607c7.641-2.333,14.94-5.762,21.698-10.04c6.75-4.301,12.92-9.485,18.509-15.212
								c5.587-5.738,10.576-12.051,14.969-18.749c8.794-13.411,15.19-28.328,19.44-43.784
								C1187.752,899.387,1189.755,883.33,1189.788,867.287z"/>
						</g>
						<g>
							<path style="fill:#FFFFFF;" d="M1085.312,1010.918c-8.412,0-16.814-1.248-24.974-3.712
								c-7.893-2.374-15.598-5.902-22.899-10.485c-6.902-4.349-13.471-9.643-19.526-15.742
								c-5.712-5.748-11.025-12.265-15.789-19.364c-8.964-13.389-15.889-28.591-20.586-45.178
								c-2.201-7.915-3.873-16.108-4.973-24.37c-1.073-8.087-1.633-16.417-1.672-24.761c0.045-8.391,0.61-16.721,1.686-24.796
								c1.105-8.265,2.784-16.455,4.986-24.348c4.713-16.596,11.649-31.786,20.619-45.161c4.754-7.086,10.068-13.594,15.792-19.346
								c6.067-6.099,12.633-11.385,19.518-15.714c7.254-4.544,14.953-8.054,22.885-10.446c8.137-2.463,16.525-3.718,24.926-3.725
								c8.419,0.014,16.805,1.276,24.937,3.748c7.918,2.395,15.608,5.912,22.856,10.46c6.881,4.338,13.44,9.628,19.496,15.727
								c5.714,5.756,11.017,12.265,15.761,19.35c8.958,13.383,15.876,28.565,20.561,45.132c4.321,15.578,6.56,32.083,6.663,49.081
								v0.043c-0.09,16.993-2.32,33.503-6.626,49.07c-4.675,16.587-11.584,31.782-20.536,45.178
								c-4.749,7.101-10.051,13.62-15.76,19.372c-6.048,6.099-12.608,11.399-19.495,15.753c-7.297,4.586-14.996,8.118-22.889,10.502
								C1102.129,1009.649,1093.732,1010.906,1085.312,1010.918z M1085.296,731.88c-7.582,0.032-15.18,1.191-22.556,3.45
								c-7.129,2.184-14.131,5.443-20.808,9.686c-6.184,3.959-12.188,8.911-17.829,14.713c-5.256,5.414-10.133,11.55-14.498,18.227
								c-8.227,12.591-14.581,26.974-18.89,42.752c-1.98,7.294-3.514,15.06-4.556,23.076c-0.998,7.681-1.513,15.591-1.531,23.513
								c0.024,7.918,0.545,15.828,1.547,23.495c1.043,8,2.581,15.763,4.571,23.071c4.319,15.767,10.684,30.14,18.918,42.72
								c4.361,6.669,9.238,12.794,14.5,18.205c5.648,5.798,11.645,10.743,17.827,14.692c6.628,4.202,13.624,7.447,20.784,9.642
								c7.363,2.262,14.948,3.431,22.55,3.468c7.571-0.032,15.157-1.192,22.518-3.447c7.174-2.194,14.178-5.436,20.814-9.635
								c6.178-3.935,12.185-8.876,17.847-14.677c5.264-5.408,10.155-11.533,14.529-18.199c8.245-12.575,14.626-26.955,18.968-42.74
								c4.032-14.771,6.095-30.452,6.129-46.606c-0.025-16.147-2.077-31.832-6.1-46.617c-4.327-15.786-10.702-30.176-18.941-42.765
								c-4.371-6.67-9.259-12.802-14.528-18.22c-5.64-5.788-11.65-10.736-17.863-14.705c-6.669-4.232-13.675-7.484-20.812-9.662
								C1100.504,733.059,1092.904,731.904,1085.296,731.88z"/>
						</g>
					</g>
					<g>
						<g>
							<path style="fill:#FFFFFF;" d="M960.899,811.906l32.017-0.26l32.017-0.146l64.032-0.119l64.034,0.13l32.017,0.161
								l32.017,0.281c0.053,0,0.094,0.043,0.094,0.095c0,0-0.042,0.093-0.094,0.094l-32.017,0.28l-32.017,0.16l-64.034,0.131
								l-64.032-0.119l-32.017-0.147l-32.017-0.26c-0.076,0-0.139-0.064-0.139-0.064
								C960.761,811.969,960.824,811.907,960.899,811.906z"/>
						</g>
						<g>
							<polygon style="fill:#FFFFFF;" points="1088.975,816.385 992.9,816.12 959.348,815.843 957.107,813.602 957.106,811.961 
								957.19,808.374 960.871,808.234 1024.914,807.825 1088.961,807.708 1185.036,808.001 1220.693,808.314 1220.786,815.718 
								1217.034,815.812 1153.019,816.252 							"/>
						</g>
					</g>
					<g>
						<g>
							<path style="fill:#FFFFFF;" d="M998.043,758.074c7.577-0.121,15.154-0.172,22.73-0.261l22.731-0.146
								c7.577-0.063,15.155-0.056,22.732-0.075l22.729-0.044l45.463,0.13l22.731,0.161c7.577,0.096,15.154,0.152,22.731,0.281
								c0.052,0.001,0.092,0.043,0.092,0.043c0,0.103-0.042,0.144-0.092,0.145c-7.577,0.13-15.154,0.185-22.731,0.281l-22.731,0.161
								l-45.463,0.13l-22.729-0.043c-7.577-0.019-15.155-0.012-22.732-0.075l-22.731-0.147c-7.576-0.088-15.154-0.139-22.73-0.26
								c-0.078-0.001-0.139-0.065-0.138-0.143C997.906,758.136,997.968,758.075,998.043,758.074z"/>
						</g>
						<g>
							<path style="fill:#FFFFFF;" d="M1088.978,762.553l-28.64-0.057c-5.621-0.007-11.242-0.017-16.862-0.064l-30.311-0.227
								c-5.06-0.051-10.12-0.096-15.179-0.179l-3.6-0.057l-0.14-7.431l3.739-0.136c4.896-0.079,9.793-0.125,14.69-0.177
								l30.808-0.232c5.333-0.043,10.673-0.055,16.012-0.061l29.467-0.058l76.501,0.384c4.83,0.053,9.66,0.103,14.49,0.186
								l3.725,0.064l-0.166,7.376l-3.622,0.093c-4.997,0.086-10.057,0.14-15.117,0.194l-30.32,0.248L1088.978,762.553z"/>
						</g>
					</g>
					<g>
						<g>
							<path style="fill:#FFFFFF;" d="M949.773,865.739l34.799-0.258l34.798-0.148l69.596-0.119l69.598,0.131l34.799,0.162
								l34.798,0.28c0.051,0,0.094,0.042,0.093,0.095c0,0-0.042,0.093-0.093,0.095l-34.798,0.279l-34.799,0.161l-69.598,0.131
								l-69.596-0.118l-34.798-0.149l-34.799-0.259c-0.077,0-0.14-0.064-0.139-0.141
								C949.635,865.802,949.697,865.74,949.773,865.739z"/>
						</g>
						<g>
							<polygon style="fill:#FFFFFF;" points="1088.975,870.217 984.556,869.952 946.117,869.664 945.977,862.206 949.747,862.067 
								1019.355,861.661 1088.963,861.543 1193.379,861.834 1229.723,862.123 1231.933,864.379 1231.79,869.554 1228.159,869.647 
								1158.579,870.088 							"/>
						</g>
					</g>
					<g>
						<g>
							<path style="fill:#FFFFFF;" d="M960.899,919.571l32.017-0.259l32.017-0.147l64.032-0.119l64.034,0.132l32.017,0.161
								l32.017,0.279c0.053,0.001,0.094,0.043,0.094,0.043c-0.001,0.104-0.042,0.145-0.094,0.145l-32.017,0.28L1153,920.248
								l-64.034,0.131l-64.032-0.119l-32.017-0.148l-32.017-0.259c-0.076-0.001-0.139-0.064-0.139-0.141
								C960.761,919.634,960.824,919.573,960.899,919.571z"/>
						</g>
						<g>
							<polygon style="fill:#FFFFFF;" points="1088.975,924.048 992.9,923.783 959.348,923.514 957.109,921.273 957.106,919.628 
								957.186,916.038 960.869,915.902 1024.916,915.493 1088.961,915.375 1185.036,915.665 1220.693,915.977 1220.786,923.385 
								1217.034,923.479 1153.019,923.919 							"/>
						</g>
					</g>
					<g>
						<g>
							<path style="fill:#FFFFFF;" d="M1184.472,974.039h-181.847c-0.271,0-0.492-0.222-0.492-0.493
								c0-0.272,0.221-0.493,0.492-0.493h181.847c0.272,0,0.491,0.221,0.491,0.493
								C1184.963,973.817,1184.744,974.039,1184.472,974.039z"/>
						</g>
						<g>
							<path style="fill:#FFFFFF;" d="M1184.471,977.708h-181.845c-2.288,0-4.15-1.868-4.15-4.163s1.862-4.163,4.15-4.163h181.845
								c2.288,0,4.149,1.868,4.149,4.163S1186.759,977.708,1184.471,977.708z"/>
						</g>
					</g>
				</g>
				<g>
					<path style="fill:#FFFFFF;" d="M1088.955,1013.802c-82.457,0-149.541-66.351-149.541-147.908
						c0-81.556,67.084-147.906,149.541-147.906c82.457,0,149.541,66.351,149.541,147.906
						C1238.496,947.451,1171.412,1013.802,1088.955,1013.802z M1088.955,731.114c-75.22,0-136.416,60.462-136.416,134.78
						c0,74.321,61.196,134.783,136.416,134.783c75.22,0,136.415-60.462,136.415-134.783
						C1225.37,791.576,1164.175,731.114,1088.955,731.114z"/>
				</g>
			</g>
			<g>
				<path style="fill:#FFFFFF;" d="M1232.717,746.221h-42.94v-11.118l14.24-20.156c3.907-5.55,6.591-9.667,8.051-12.351
					c1.46-2.684,2.538-5.258,3.231-7.723c0.693-2.465,1.041-5.011,1.041-7.641c0-3.067-0.685-5.367-2.054-6.901
					c-1.369-1.534-3.149-2.3-5.34-2.3c-1.936,0-3.743,0.512-5.422,1.534c-1.68,1.022-3.724,2.867-6.134,5.532l-8.325-8.763
					c3.834-4.345,7.394-7.32,10.68-8.928c3.286-1.607,6.846-2.41,10.68-2.41c6.463,0,11.51,1.899,15.144,5.696
					c3.633,3.798,5.45,9.074,5.45,15.829c0,3.067-0.329,5.97-0.986,8.708c-0.657,2.738-1.652,5.486-2.985,8.243
					c-1.333,2.758-3.004,5.623-5.011,8.599c-2.008,2.977-7.194,9.796-15.555,20.457v0.438h26.235V746.221z"/>
				<path style="fill:#FFFFFF;" d="M1287.926,729.406h-8.106v16.815h-14.021v-16.815h-26.126v-12.104l24.209-51.156h15.938v50.937
					h8.106V729.406z M1265.799,717.083v-16.869l0.274-7.449l0.383-7.12h-0.438c-1.279,3.98-2.666,7.577-4.162,10.79l-9.64,20.648
					H1265.799z"/>
			</g>
		</g>
	</g>
</g>
</svg>
